<svg width="36" height="36" viewBox="0 0 36 36" fill="none" xmlns="http://www.w3.org/2000/svg">
<g id="Frame" clip-path="url(#clip0_6604_3354)">
<path id="Vector" d="M34.8593 22.9542C34.8593 25.5902 34.879 28.2262 34.8499 30.8622C34.8374 32.0095 34.3963 33.0259 33.6601 33.9127C33.0286 34.6817 32.1874 35.2514 31.2385 35.5528C30.08 35.9281 28.9301 35.875 27.7801 35.472C26.0777 34.8751 24.3655 34.3063 22.6582 33.7237C21.2743 33.252 19.885 32.7971 18.5128 32.2918C18.1549 32.16 17.8919 32.1431 17.5171 32.2771C15.1787 33.1121 12.8166 33.8998 10.4621 34.7017C9.54871 35.0145 8.64654 35.3661 7.71618 35.6145C5.86308 36.1082 4.20812 35.6659 2.78888 34.3881C1.92294 33.6062 1.4099 32.614 1.20325 31.468C1.16121 31.2572 1.13801 31.0431 1.13392 30.8282C1.13706 25.5562 1.12453 20.2874 1.14779 15.0168C1.15226 13.9682 1.56913 13.0264 2.19757 12.1811C2.60013 11.6369 3.13687 11.2344 3.64141 10.7961C4.31994 10.2055 5.00966 9.62735 5.69445 9.04386C7.44155 7.55461 9.1885 6.06536 10.9353 4.5761C12.003 3.66468 13.0724 2.75549 14.1289 1.83156C14.8656 1.1891 15.6412 0.634202 16.6038 0.378646C17.9707 0.0131837 19.2673 0.176257 20.5148 0.829443C21.0292 1.09751 21.4501 1.48665 21.8862 1.85703C22.7769 2.61059 23.6642 3.36787 24.548 4.12888C25.5302 4.96942 26.5122 5.8104 27.4938 6.65182C28.6595 7.64501 29.8363 8.62434 30.9929 9.6278C31.8061 10.3341 32.6703 10.986 33.4244 11.7553C34.2147 12.5622 34.6768 13.5447 34.8217 14.6755C34.8514 14.948 34.8639 15.2221 34.8593 15.4962C34.862 17.9821 34.862 20.4681 34.8593 22.9542ZM19.4874 31.1088C20.1136 31.3255 20.7094 31.5337 21.307 31.7369C23.5635 32.5049 25.8246 33.2631 28.0757 34.0441C28.7328 34.2715 29.3943 34.4158 30.0854 34.3367C31.964 34.1214 33.4132 32.4938 33.4222 30.6106C33.4257 29.8511 33.4222 29.0916 33.4222 28.3321C33.4222 24.0591 33.4233 19.786 33.4257 15.5127C33.4257 14.3404 33.0505 13.3311 32.1733 12.5515C31.1294 11.624 30.051 10.7358 28.9891 9.8284C27.714 8.73767 26.4379 7.64575 25.1608 6.55264C23.6324 5.24403 22.0911 3.94526 20.5689 2.62682C19.2164 1.45538 17.3306 1.28918 15.8894 2.28012C15.1675 2.77649 14.5404 3.39706 13.8726 3.96491C12.7906 4.88393 11.7176 5.81367 10.6374 6.73492C9.35966 7.82506 8.07968 8.91221 6.79746 9.99639C5.88097 10.7774 4.9779 11.5748 4.05068 12.3429C3.07112 13.1546 2.57463 14.18 2.57463 15.4493C2.57463 20.483 2.57597 25.5154 2.57866 30.5467C2.57866 31.7807 3.07067 32.7962 4.04844 33.5571C4.89828 34.2206 5.87024 34.4618 6.94104 34.3055C7.49746 34.2246 8.01005 34.003 8.53561 33.8265C10.4987 33.1657 12.4583 32.4942 14.4188 31.8258C15.1089 31.5904 15.7982 31.3527 16.521 31.1047C15.5294 30.528 14.6979 29.8033 13.8789 29.0706C12.665 27.9849 11.5083 26.8367 10.4938 25.5594C9.45389 24.2526 8.5781 22.8533 8.12813 21.2256C7.72558 19.7687 7.71932 18.3158 8.26232 16.8919C8.75031 15.6164 9.55229 14.5892 10.7703 13.924C11.4152 13.5719 12.1121 13.3722 12.8452 13.4093C13.8807 13.4611 14.8092 13.8534 15.6788 14.3985C16.4786 14.9018 17.2107 15.5054 17.857 16.1945C17.9648 16.3084 18.0386 16.3151 18.1393 16.1945C18.2323 16.0883 18.331 15.9872 18.4349 15.8916C19.2432 15.1146 20.1181 14.428 21.1406 13.9503C22.0897 13.5076 23.0742 13.2462 24.124 13.5116C25.9467 13.9731 27.0734 15.2058 27.7336 16.8937C28.3334 18.4275 28.2703 19.9925 27.7783 21.546C27.3261 22.9681 26.5568 24.2164 25.6452 25.3856C24.8164 26.4489 23.8762 27.409 22.9091 28.3446C22.1868 29.0424 21.421 29.6903 20.6365 30.3171C20.2778 30.6026 19.8926 30.8492 19.4874 31.1088ZM18.757 29.8578C18.9963 29.7041 19.1918 29.5964 19.3675 29.4628C21.0693 28.1734 22.6286 26.7065 24.0193 25.0871C24.8007 24.1744 25.4851 23.1968 26.0044 22.1089C26.4351 21.2073 26.7003 20.2597 26.7084 19.2603C26.7155 18.39 26.5371 17.55 26.0996 16.7825C25.7212 16.1181 25.2225 15.5681 24.5449 15.1951C23.5998 14.6746 22.6694 14.8149 21.748 15.2612C20.513 15.8599 19.5214 16.7597 18.6411 17.7908C18.2234 18.2823 17.7734 18.2823 17.357 17.7908C16.4781 16.7565 15.4815 15.8617 14.2488 15.2598C13.6441 14.965 13.012 14.776 12.3317 14.8939C11.3343 15.0668 10.6204 15.6655 10.0864 16.484C9.15689 17.9097 9.10232 19.4502 9.57913 21.0322C10.0747 22.6754 11.0637 24.031 12.1676 25.311C12.9946 26.2697 13.9013 27.1508 14.8441 27.9943C15.7087 28.7681 16.602 29.5071 17.6133 30.0892C17.696 30.137 17.7591 30.1755 17.8427 30.0781C18.163 29.7032 18.4564 29.3127 18.6322 28.8454C18.7977 28.4058 18.7337 28.001 18.4027 27.6704C17.9725 27.2415 17.8011 26.7237 17.824 26.1357C17.832 25.9284 17.7591 25.8842 17.5708 25.894C17.3024 25.9074 17.0269 25.898 16.7795 25.7979C16.368 25.6317 16.1824 25.2658 16.173 24.8561C16.1484 23.7772 16.1645 22.6978 16.1645 21.6184C16.1653 21.5961 16.1683 21.5739 16.1735 21.5522C16.436 20.1226 17.6969 19.3997 19.0307 19.7303C20.1042 19.9984 20.7228 21.0465 20.7613 21.9789C20.798 22.8725 20.7514 23.766 20.7765 24.6596C20.7944 25.285 20.2057 25.8766 19.5657 25.8587C19.2168 25.8489 18.8657 25.8355 18.5168 25.886C18.4305 25.8985 18.3491 25.9007 18.3594 26.02C18.3978 26.4552 18.4139 26.885 18.7574 27.2343C19.3094 27.7968 19.4203 28.4603 19.0983 29.1845C19.0057 29.3954 18.8912 29.5951 18.757 29.8596V29.8578ZM16.7344 22.3381C16.7344 22.6629 16.7375 22.9305 16.7344 23.1982C16.7321 23.3076 16.7608 23.3581 16.8833 23.3581C17.9474 23.3581 19.0119 23.3425 20.0756 23.3956C20.1843 23.4014 20.2424 23.3715 20.2366 23.2478C20.2147 22.7961 20.2545 22.3448 20.1968 21.8913C20.0666 20.8691 19.3523 20.22 18.3182 20.2302C17.6607 20.2365 17.2 20.5568 16.8923 21.1287C16.6726 21.5353 16.7523 21.9691 16.7344 22.3381ZM19.3286 23.9367V23.9322C19.0759 23.9322 18.8232 23.9353 18.5705 23.9322C18.4645 23.9322 18.4041 23.9537 18.4054 24.0774C18.4103 24.4487 18.4086 24.8195 18.4054 25.1908C18.4054 25.2801 18.4332 25.3248 18.5325 25.3248C18.8666 25.3181 19.2034 25.3351 19.5348 25.3096C19.9307 25.2792 20.1311 25.1139 20.2111 24.7775C20.2702 24.5304 20.2281 24.2753 20.2335 24.0238C20.2335 23.921 20.1498 23.9394 20.0863 23.9389C19.8305 23.9358 19.5795 23.9367 19.3273 23.9367H19.3286ZM17.857 24.6475C17.857 24.4621 17.853 24.2762 17.857 24.0908C17.8597 23.9818 17.8271 23.9255 17.7063 23.9282C17.4241 23.934 17.1418 23.9344 16.8596 23.9327C16.7661 23.9327 16.7192 23.9702 16.7209 24.0622C16.7263 24.3508 16.6901 24.643 16.7464 24.9281C16.7862 25.1282 16.8864 25.2944 17.1119 25.3195C17.8548 25.4021 17.8553 25.3994 17.8557 24.6698L17.857 24.6475Z" fill="#3DB2BB"/>
</g>
<defs>
<clipPath id="clip0_6604_3354">
<rect width="35.625" height="35.625" fill="white" transform="translate(0.1875 0.1875)"/>
</clipPath>
</defs>
</svg>
