<svg width="56" height="56" viewBox="0 0 56 56" fill="none" xmlns="http://www.w3.org/2000/svg">
<g id="ic:round-lock-reset">
<path id="Vector" d="M30.94 7.00002C28.1319 6.91982 25.3362 7.40369 22.7184 8.42299C20.1005 9.44228 17.7137 10.9763 15.6992 12.9343C13.6846 14.8923 12.0833 17.2344 10.9898 19.8222C9.89642 22.4099 9.33316 25.1907 9.33336 28H5.1567C4.1067 28 3.59336 29.26 4.34003 29.9833L10.85 36.4933C11.3167 36.96 12.04 36.96 12.5067 36.4933L19.04 29.9833C19.74 29.26 19.2267 28 18.1767 28H14C14 18.9233 21.4667 11.5267 30.5667 11.6667C39.2234 11.7833 46.5267 19.0867 46.6667 27.7667C46.8067 36.89 39.4334 44.3334 30.3334 44.3334C26.6234 44.3334 23.2167 43.0967 20.4634 40.9967C19.53 40.2967 18.2234 40.3667 17.4067 41.2067C16.4034 42.21 16.4967 43.8667 17.6167 44.7067C21.2694 47.4948 25.7381 49.0035 30.3334 49C42.14 49 51.66 39.27 51.3334 27.4167C51.03 16.45 41.8834 7.30335 30.94 7.00002ZM35 25.6667V23.3333C35 20.7667 32.9 18.6667 30.3334 18.6667C27.7667 18.6667 25.6667 20.7667 25.6667 23.3333V25.6667C24.3834 25.6667 23.3334 26.7167 23.3334 28V35C23.3334 36.2833 24.3834 37.3333 25.6667 37.3333H35C36.2834 37.3333 37.3334 36.2833 37.3334 35V28C37.3334 26.7167 36.2834 25.6667 35 25.6667ZM32.6667 25.6667H28V23.3333C28 22.05 29.05 21 30.3334 21C31.6167 21 32.6667 22.05 32.6667 23.3333V25.6667Z" fill="#637381"/>
</g>
</svg>
